<svg width="40" height="33" viewBox="0 0 40 33" fill="none" xmlns="http://www.w3.org/2000/svg">
<rect x="7" width="3" height="3" fill="black"/>
<rect x="10" width="3" height="3" fill="black"/>
<rect x="13" width="4" height="3" fill="black"/>
<rect x="23" width="4" height="3" fill="black"/>
<rect x="27" width="3" height="3" fill="black"/>
<rect x="30" width="3" height="3" fill="black"/>
<rect x="3" y="3" width="4" height="4" fill="black"/>
<rect x="7" y="3" width="3" height="4" fill="#FEA3C4"/>
<rect x="10" y="3" width="3" height="4" fill="#FEA3C4"/>
<rect x="13" y="3" width="4" height="4" fill="#FEA3C4"/>
<rect x="17" y="3" width="3" height="4" fill="black"/>
<rect x="20" y="3" width="3" height="4" fill="black"/>
<rect x="23" y="3" width="4" height="4" fill="#FEA3C4"/>
<rect x="27" y="3" width="3" height="4" fill="#FEA3C4"/>
<rect x="30" y="3" width="3" height="4" fill="#FEA3C4"/>
<rect x="33" y="3" width="4" height="4" fill="black"/>
<rect y="7" width="3" height="3" fill="black"/>
<rect x="3" y="7" width="4" height="3" fill="#FEA3C4"/>
<rect x="7" y="7" width="3" height="3" fill="#FEA3C4"/>
<rect x="10" y="7" width="3" height="3" fill="#FEA3C4"/>
<rect x="13" y="7" width="4" height="3" fill="#FEA3C4"/>
<rect x="17" y="7" width="3" height="3" fill="#FEA3C4"/>
<rect x="20" y="7" width="3" height="3" fill="#FEA3C4"/>
<rect x="23" y="7" width="4" height="3" fill="#FEA3C4"/>
<rect x="33" y="7" width="4" height="3" fill="#FEA3C4"/>
<rect x="37" y="7" width="3" height="3" fill="black"/>
<rect y="10" width="3" height="3" fill="black"/>
<rect x="3" y="10" width="4" height="3" fill="#FEA3C4"/>
<rect x="7" y="10" width="3" height="3" fill="#FEA3C4"/>
<rect x="10" y="10" width="3" height="3" fill="#FEA3C4"/>
<rect x="13" y="10" width="4" height="3" fill="#FEA3C4"/>
<rect x="17" y="10" width="3" height="3" fill="#FEA3C4"/>
<rect x="20" y="10" width="3" height="3" fill="#FEA3C4"/>
<rect x="23" y="10" width="4" height="3" fill="#FEA3C4"/>
<rect x="27" y="10" width="3" height="3" fill="#FEA3C4"/>
<rect x="33" y="10" width="4" height="3" fill="#FEA3C4"/>
<rect x="37" y="10" width="3" height="3" fill="black"/>
<rect y="13" width="3" height="4" fill="black"/>
<rect x="3" y="13" width="4" height="4" fill="#FEA3C4"/>
<rect x="7" y="13" width="3" height="4" fill="#FEA3C4"/>
<rect x="10" y="13" width="3" height="4" fill="#FEA3C4"/>
<rect x="13" y="13" width="4" height="4" fill="#FEA3C4"/>
<rect x="17" y="13" width="3" height="4" fill="#FEA3C4"/>
<rect x="20" y="13" width="3" height="4" fill="#FEA3C4"/>
<rect x="23" y="13" width="4" height="4" fill="#FEA3C4"/>
<rect x="27" y="13" width="3" height="4" fill="#FEA3C4"/>
<rect x="30" y="13" width="3" height="4" fill="#FEA3C4"/>
<rect x="33" y="13" width="4" height="4" fill="#FEA3C4"/>
<rect x="37" y="13" width="3" height="4" fill="black"/>
<rect x="3" y="17" width="4" height="3" fill="black"/>
<rect x="7" y="17" width="3" height="3" fill="#FEA3C4"/>
<rect x="10" y="17" width="3" height="3" fill="#FEA3C4"/>
<rect x="13" y="17" width="4" height="3" fill="#FEA3C4"/>
<rect x="17" y="17" width="3" height="3" fill="#FEA3C4"/>
<rect x="20" y="17" width="3" height="3" fill="#FEA3C4"/>
<rect x="23" y="17" width="4" height="3" fill="#FEA3C4"/>
<rect x="27" y="17" width="3" height="3" fill="#FEA3C4"/>
<rect x="30" y="17" width="3" height="3" fill="#FEA3C4"/>
<rect x="33" y="17" width="4" height="3" fill="black"/>
<rect x="7" y="20" width="3" height="3" fill="black"/>
<rect x="10" y="20" width="3" height="3" fill="#FEA3C4"/>
<rect x="13" y="20" width="4" height="3" fill="#FEA3C4"/>
<rect x="17" y="20" width="3" height="3" fill="#FEA3C4"/>
<rect x="20" y="20" width="3" height="3" fill="#FEA3C4"/>
<rect x="23" y="20" width="4" height="3" fill="#FEA3C4"/>
<rect x="27" y="20" width="3" height="3" fill="#FEA3C4"/>
<rect x="30" y="20" width="3" height="3" fill="black"/>
<rect x="10" y="23" width="3" height="4" fill="black"/>
<rect x="13" y="23" width="4" height="4" fill="#FEA3C4"/>
<rect x="17" y="23" width="3" height="4" fill="#FEA3C4"/>
<rect x="20" y="23" width="3" height="4" fill="#FEA3C4"/>
<rect x="23" y="23" width="4" height="4" fill="#FEA3C4"/>
<rect x="27" y="23" width="3" height="4" fill="black"/>
<rect x="13" y="27" width="4" height="3" fill="black"/>
<rect x="17" y="27" width="3" height="3" fill="#FEA3C4"/>
<rect x="20" y="27" width="3" height="3" fill="#FEA3C4"/>
<rect x="23" y="27" width="4" height="3" fill="black"/>
<rect x="17" y="30" width="3" height="3" fill="black"/>
<rect x="20" y="30" width="3" height="3" fill="black"/>
</svg>
